<svg width="494" height="46" viewBox="0 0 494 46" fill="none" xmlns="http://www.w3.org/2000/svg">
<path d="M7.7945 43.792C7.4375 44.4667 6.86238 44.8035 6.069 44.8035H0C0.039627 44.7238 1.2495 42.6413 3.6295 38.556C6.04913 34.4303 8.60763 30.0475 11.305 25.4065C14.0024 20.7655 16.5211 16.422 18.8615 12.376C21.2019 8.32999 22.4315 6.20822 22.5505 6.00949C22.9869 5.17649 23.6215 4.52199 24.4545 4.04599C25.2875 3.56999 26.18 3.33199 27.132 3.33199H30.702C33.3994 8.36926 40.7774 22.1935 52.836 44.8035H47.362C46.1324 44.8035 45.22 44.2478 44.625 43.1375C41.2136 36.7508 38.8734 32.3478 37.604 29.9285L27.37 10.7695C14.6766 32.2288 8.1515 43.2363 7.7945 43.792ZM64.5055 43.792C64.1485 44.4667 63.5732 44.8035 62.78 44.8035H56.711C56.7506 44.7238 57.9605 42.6413 60.3405 38.556C62.7601 34.4303 65.3186 30.0475 68.016 25.4065C70.7134 20.7655 73.2326 16.422 75.5721 12.376C77.9129 8.32999 79.1421 6.20822 79.2611 6.00949C79.6979 5.17649 80.3321 4.52199 81.1651 4.04599C81.9981 3.56999 82.8906 3.33199 83.8426 3.33199H87.4126C90.1104 8.36926 97.4884 22.1935 109.547 44.8035H104.073C102.843 44.8035 101.931 44.2478 101.336 43.1375C97.9251 36.7508 95.5844 32.3478 94.3146 29.9285L84.0806 10.7695C71.3881 32.2288 64.8625 43.2363 64.5055 43.792ZM134.613 9.4605C126.361 9.4605 118.171 9.4605 110.039 9.4605C108.849 9.4605 107.838 9.06423 107.005 8.2705C106.172 7.4375 105.755 6.44623 105.755 5.2955V3.2725C105.755 3.2725 105.834 3.2725 105.993 3.2725C124.755 3.2725 134.196 3.2725 134.315 3.2725C137.964 3.23323 140.998 4.403 143.419 6.783C145.838 9.12373 147.048 11.9 147.048 15.113C147.048 18.2463 145.937 20.944 143.716 23.205C141.495 25.4267 138.797 26.656 135.624 26.894C139.075 30.94 141.891 34.2922 144.073 36.9495C146.255 39.5675 148.456 42.1855 150.678 44.8035H144.43C143.28 44.8035 142.248 44.3668 141.336 43.4945L122.058 20.7655C126.818 20.7655 130.645 20.7655 133.542 20.7655C134.215 20.7655 134.572 20.7655 134.613 20.7655C136.318 20.7262 137.746 20.1705 138.897 19.0995C140.087 18.0285 140.701 16.6993 140.741 15.113C140.701 13.5267 140.087 12.1975 138.897 11.1265C137.746 10.0162 136.318 9.4605 134.613 9.4605ZM263.121 27.132H259.848V3.33199H265.917C266.671 3.33199 267.286 3.62949 267.762 4.22449L292.454 35.9975V6.545C292.454 5.63227 292.771 4.87899 293.406 4.28399C294.041 3.64972 294.814 3.33199 295.727 3.33199H298.999V44.8035H292.93C292.176 44.8035 291.562 44.506 291.086 43.911L266.453 12.138V23.919C266.453 24.8317 266.115 25.6052 265.441 26.2395C264.806 26.8345 264.032 27.132 263.121 27.132ZM381.704 2.618C382.061 1.904 382.675 1.28876 383.549 0.773493C384.421 0.258223 385.274 0 386.107 0H389.499L384.858 9.57949H378.134L381.704 2.618ZM409.137 45.101C405.766 45.0213 402.89 43.8313 400.51 41.531C398.13 39.1903 396.94 36.3938 396.94 33.1415C396.94 29.8892 398.15 27.0927 400.569 24.752C402.989 22.4113 405.924 21.2415 409.375 21.2415C411.16 21.2022 414.671 21.2022 419.907 21.2415C425.182 21.2415 428.079 21.2415 428.594 21.2415L429.248 21.182C430.795 21.0237 432.084 20.4085 433.116 19.3375C434.148 18.2272 434.663 16.9373 434.663 15.47C434.663 13.923 434.068 12.5938 432.878 11.4835C431.688 10.3328 430.26 9.758 428.594 9.758H421.275H421.335H421.394H421.454H421.513H421.573H421.632H408.245C407.332 9.758 406.54 9.44026 405.865 8.80599C405.231 8.17172 404.913 7.41727 404.913 6.545V3.57H428.237C431.807 3.49027 434.821 4.64099 437.281 7.02099C439.78 9.36172 441.029 12.1773 441.029 15.47C441.029 18.7627 439.8 21.5783 437.34 23.919C434.921 26.2597 432.006 27.4295 428.594 27.4295C426.61 27.4295 420.244 27.4295 409.494 27.4295C407.59 27.4688 406.083 28.0638 404.972 29.2145C403.862 30.3652 403.306 31.6933 403.306 33.201C403.306 34.6683 403.842 35.9582 404.913 37.0685C406.023 38.1395 407.373 38.7345 408.959 38.8535H437.043C437.956 38.8535 438.729 39.1712 439.363 39.8055C439.998 40.4398 440.315 41.1942 440.315 42.0665V45.0415C420.879 45.0415 410.545 45.0617 409.316 45.101C409.277 45.101 409.217 45.101 409.137 45.101ZM481.485 38.8535C482.992 38.7738 484.301 38.1788 485.412 37.0685C486.523 35.9582 487.078 34.6492 487.078 33.1415C487.078 31.5945 486.483 30.2653 485.293 29.155C484.143 28.0043 482.734 27.4295 481.068 27.4295C480.791 27.4295 480.414 27.4295 479.938 27.4295C479.462 27.4295 478.807 27.4295 477.974 27.4295C477.182 27.4295 475.278 27.4295 472.262 27.4295C469.287 27.4295 465.44 27.4295 460.719 27.4295C459.808 27.4295 459.014 27.1118 458.339 26.4775C457.705 25.8432 457.387 25.0888 457.387 24.2165V21.2415C470.875 21.2415 477.974 21.2213 478.688 21.182C480.354 21.182 481.763 20.6263 482.913 19.516C484.103 18.4057 484.698 17.0765 484.698 15.5295C484.698 13.9432 484.103 12.5938 482.913 11.4835C481.763 10.3328 480.354 9.758 478.688 9.758C478.411 9.758 478.193 9.758 478.034 9.758C477.915 9.758 477.756 9.758 477.558 9.758C477.399 9.758 476.825 9.758 475.832 9.758C474.841 9.758 473.532 9.758 471.905 9.758C470.28 9.758 467.781 9.758 464.408 9.758C461.037 9.758 457.05 9.758 452.449 9.758C451.537 9.758 450.764 9.4605 450.128 8.8655C449.494 8.23123 449.176 7.45773 449.176 6.545V3.57C468.891 3.57 478.807 3.54977 478.926 3.5105V3.57C482.299 3.64973 485.155 4.83973 487.494 7.14C489.874 9.44027 491.064 12.2177 491.064 15.47C491.064 18.2463 490.073 20.8643 488.089 23.324C491.7 25.942 493.504 29.2145 493.504 33.1415C493.504 36.2355 492.393 38.9332 490.172 41.2335C487.99 43.4945 485.313 44.7642 482.139 45.0415C482.061 45.0415 471.072 45.0415 449.176 45.0415V42.0665C449.176 41.1942 449.494 40.4398 450.128 39.8055C450.764 39.1712 451.537 38.8535 452.449 38.8535H481.485Z" fill="#FCF5C7"/>
<path d="M188.401 3.33197H191.673C192.586 3.33197 193.36 3.6497 193.994 4.28397C194.669 4.87897 194.985 5.63225 194.946 6.54498V44.8035H191.673C190.761 44.8035 189.987 44.4858 189.353 43.8515C188.719 43.2172 188.401 42.4627 188.401 41.5905V24.633H159.127C158.214 24.633 157.441 24.3152 156.806 23.681C156.172 23.0467 155.854 22.2923 155.854 21.42V18.445H188.401V3.33197ZM208.433 43.792C208.076 44.4667 207.5 44.8035 206.708 44.8035H200.639C200.678 44.7237 201.888 42.6412 204.268 38.556C206.688 34.4302 209.246 30.0475 211.944 25.4065C214.64 20.7655 217.16 16.422 219.5 12.376C221.84 8.32998 223.07 6.2082 223.189 6.00947C223.625 5.17647 224.26 4.52198 225.093 4.04598C225.926 3.56998 226.819 3.33197 227.771 3.33197H231.341C234.037 8.36924 241.415 22.1935 253.475 44.8035H248.001C246.77 44.8035 245.859 44.2478 245.264 43.1375C241.852 36.7508 239.511 32.3477 238.243 29.9285L228.009 10.7695C215.315 32.2287 208.79 43.2362 208.433 43.792ZM310.178 9.51998C309.267 9.51998 308.493 9.20225 307.858 8.56798C307.223 7.93371 306.906 7.17924 306.906 6.30697V3.33197H342.784C343.658 3.33197 344.411 3.6497 345.045 4.28397C345.72 4.87897 346.057 5.63225 346.057 6.54498V9.51998H310.178ZM323.209 41.5905V15.1725H326.481C327.394 15.1725 328.167 15.4902 328.802 16.1245C329.437 16.7587 329.754 17.5132 329.754 18.3855V44.8035H326.481C325.57 44.8035 324.796 44.4858 324.161 43.8515C323.526 43.2172 323.209 42.4627 323.209 41.5905Z" fill="#0770F4"/>
<path d="M23.086 44.8035C24.729 44.8035 26.061 43.4719 26.061 41.8285C26.061 40.1851 24.729 38.8535 23.086 38.8535V44.8035ZM5.23599 44.8035H23.086V38.8535H5.23599V44.8035Z" fill="#FCF5C7"/>
</svg>
