<svg width="112" height="107" viewBox="0 0 112 107" fill="none" xmlns="http://www.w3.org/2000/svg">
<path d="M63.3114 13.4323C92.96 19.0521 104.994 48.025 95.1233 68.768C94.7162 68.7997 94.3092 68.8314 93.9022 68.863C93.6727 65.9111 92.8398 62.8672 93.3149 60.0227C95.783 45.2449 89.595 30.8635 76.4601 23.1041C62.7404 14.9993 48.5362 14.8667 35.1312 23.4414C21.4571 32.1881 16.0532 44.9 18.9489 60.4906C19.5467 63.7087 19.4412 66.3604 16.7092 68.5612C5.88593 44.8028 23.518 15.7829 50.4065 13.2673C54.5455 12.8801 58.7672 13.3001 63.3114 13.4323Z" fill="#F27B23"/>
<path d="M74.9681 78.9602C62.8779 78.9998 50.7876 79.0394 38.2799 78.7663C37.568 78.0832 37.2734 77.7128 36.9789 77.3424C43.3128 66.9647 49.6467 56.587 56.0174 46.1489C61.0367 50.8256 61.283 52.36 58.0468 57.6931C55.5348 61.8329 53.0013 65.961 50.5151 70.1149C49.9116 71.1232 49.4569 72.2127 48.4762 74.1852C53.6908 73.8253 57.9813 73.5291 62.6274 73.2084C62.459 71.752 62.3258 70.5998 62.1722 69.2714C60.5558 69.14 59.0141 69.0148 56.7536 68.8311C59.1981 65.0993 60.2523 60.9121 64.4306 57.9007C68.4291 64.6594 72.2144 71.0577 75.8563 77.8362C75.4646 78.4644 75.2164 78.7123 74.9681 78.9602Z" fill="#F38323"/>
<path d="M87.8538 64.1837C90.6359 68.8035 93.2619 73.1601 96.0353 77.7612C94.521 78.1561 93.2561 78.4992 91.9838 78.8151C88.9235 79.5748 86.7578 79.1119 84.9729 76.0458C79.0708 65.9073 72.7983 55.9657 66.4847 45.6491C65.4948 46.5135 64.7241 47.1865 63.5653 48.1984C61.8033 45.688 60.1006 43.2621 58.3586 40.7801C61.1505 36.9146 63.8185 33.2206 66.72 29.2034C73.8766 41.0472 80.7872 52.4839 87.8538 64.1837Z" fill="#F38323"/>
<path d="M47.6284 30.9446C48.5099 32.0547 49.1504 32.9621 49.8096 33.8569C54.9712 40.8633 54.9723 40.8625 49.2488 48.6916C48.5216 47.5886 47.8762 46.6097 47.0914 45.4193C46.5449 46.0767 46.1648 46.4363 45.9035 46.8624C40.4763 55.7136 35.0626 64.5723 29.646 73.4295C25.7085 79.8681 25.7083 79.868 16.9073 78.6196C17.7193 77.0694 18.3826 75.6263 19.2007 74.2683C27.4127 60.636 35.6158 46.9985 43.9422 33.4302C44.6469 32.2819 46.2242 31.6225 47.6284 30.9446Z" fill="#F38223"/>
<path d="M77.8102 88.3743C61.8503 96.5745 46.5516 96.0257 31.5535 86.7787C28.8105 85.0875 28.3714 83.5281 31.0642 81.2165C47.9644 92.9266 64.8789 92.7294 81.6122 80.5227C84.2559 82.5748 84.48 84.4243 81.3059 86.168C80.1897 86.7812 79.1526 87.5258 77.8102 88.3743Z" fill="#F27D25"/>
<path d="M36.7526 77.5159C37.2735 77.7129 37.568 78.0833 37.8811 78.6982C37.4419 78.5249 36.9841 78.1071 36.7526 77.5159Z" fill="#F57C10"/>
<path d="M75.2152 79.0151C75.2165 78.7124 75.4647 78.4645 75.9653 78.113C75.9657 78.3629 75.714 78.7164 75.2152 79.0151Z" fill="#F57C10"/>
</svg>
